<svg xmlns="http://www.w3.org/2000/svg" xmlns:xml="http://www.w3.org/XML/1998/namespace" version="1.1" x="0" y="0" width="100px" height="100px" viewBox="0 0 67 65.607" xml:space="preserve">
	<path fill="black" d="m63.213,36.822c-2.327,-6.56 -4.94799,-13.964 -5.04399,-18.65l2.96499,0c0,-5.964 -10.43799,-14.048 -10.43799,-14.048l-1.491,2.12c2.982,2.982 5.964,8.201 5.964,11.928l0.018,0c0.091,5.184 2.802,12.858 5.21599,19.646c1.914,5.376 3.714,10.455 3.714,12.878c0,4.666 -2.79,7.456 -7.456,7.456c-4.111,0 -7.455,-3.344 -7.455,-7.456l0,-16.402c0,-11.09 -4.054,-13.42 -7.455,-13.42l0,-14.91l0,0c0,-3.292 -2.674,-5.964 -5.965,-5.964c-0.006,0 -0.009,0 -0.015,0l-26.825,0c-3.292,0 -5.964,2.672 -5.964,5.964l0,56.661c-1.65,0 -2.982,1.334 -2.982,2.982l44.732,0c0,-1.648 -1.333,-2.982 -2.981,-2.982l0,-38.768c3.698,0 4.473,5.674 4.473,10.438l0,16.401c0,5.755 4.684,10.438 10.438,10.438c6.244,0 10.438,-4.193 10.438,-10.438c-0.002,-2.936 -1.802,-8.009 -3.887,-13.874zm-54.267,-30.858l26.839,0l0,17.893l-26.839,0l0,-17.893z"/>
</svg>